<?xml version="1.0" standalone="no"?>
<!DOCTYPE svg PUBLIC "-//W3C//DTD SVG 20010904//EN"
 "http://www.w3.org/TR/2001/REC-SVG-20010904/DTD/svg10.dtd">
<svg version="1.0" xmlns="http://www.w3.org/2000/svg"
 width="250.000000pt" height="108.000000pt" viewBox="0 0 250.000000 108.000000"
 preserveAspectRatio="xMidYMid meet">
<metadata>
Created by potrace 1.15, written by Peter Selinger 2001-2017
</metadata>
<g transform="translate(0.000000,108.000000) scale(0.100000,-0.100000)"
fill="#000000" stroke="none">
<path d="M1125 1026 c-20 -9 -36 -10 -49 -4 -39 20 -91 -27 -105 -95 -6 -25
-12 -31 -27 -28 -10 2 -54 6 -97 10 -70 5 -77 4 -77 -12 0 -11 -9 -21 -20 -24
-11 -3 -18 -9 -15 -13 3 -5 1 -11 -5 -15 -6 -3 -10 4 -10 18 0 22 -5 25 -52
30 -63 6 -98 -11 -98 -48 0 -14 -8 -29 -19 -35 -50 -26 -141 2 -141 44 0 36
-23 49 -71 41 -34 -6 -44 -13 -52 -36 -6 -16 -15 -29 -19 -29 -16 0 -7 -48 13
-74 19 -25 20 -26 2 -32 -10 -3 -30 -11 -44 -18 -16 -8 -32 -10 -40 -5 -8 5
-29 9 -48 9 -42 0 -91 -48 -109 -107 -15 -50 -14 -158 1 -200 21 -55 73 -119
126 -153 l52 -34 -25 -15 c-31 -19 -50 -62 -41 -91 13 -42 83 -48 115 -10 8
10 29 20 45 22 17 3 24 3 17 1 -19 -7 -14 -33 7 -33 11 0 21 -4 23 -9 2 -4 30
-12 62 -16 53 -6 58 -5 52 10 -5 15 -2 16 26 11 18 -3 87 -10 152 -16 160 -13
302 1 373 36 49 23 54 24 76 9 24 -15 57 -12 57 6 0 26 42 49 87 49 52 -1 79
-15 84 -45 5 -26 45 -32 69 -10 17 15 20 15 43 0 37 -24 82 -35 182 -45 83 -8
277 0 363 16 28 5 31 4 26 -11 -6 -15 -1 -16 52 -10 32 4 61 12 62 16 2 5 12
9 23 9 21 0 26 26 7 33 -7 2 1 2 17 -1 17 -2 38 -12 47 -22 36 -38 100 -32
113 10 9 29 -13 78 -42 93 -24 13 -24 13 26 45 96 62 140 141 141 251 0 80
-15 130 -52 175 -24 30 -36 36 -66 36 -20 0 -43 -4 -51 -9 -8 -5 -24 -3 -40 5
-14 7 -34 15 -44 18 -18 6 -17 7 2 32 20 26 29 74 13 74 -4 0 -13 13 -19 29
-8 23 -19 31 -49 37 -45 8 -68 -4 -72 -40 -8 -67 -162 -78 -162 -11 0 32 -40
59 -72 49 -13 -4 -35 -7 -50 -6 -24 2 -28 -2 -28 -23 0 -15 -4 -24 -10 -20 -6
4 -8 10 -5 15 3 4 -4 10 -15 13 -11 3 -20 13 -20 24 0 16 -7 17 -77 12 -43 -3
-86 -9 -95 -13 -14 -6 -19 0 -29 38 -12 50 -61 101 -88 93 -9 -3 -20 -6 -26
-8 -5 -1 -29 3 -53 11 -37 12 -47 11 -75 -2 -28 -14 -37 -14 -58 -2 -30 17
-56 17 -94 0z m73 -144 c2 -15 -6 -27 -30 -42 l-33 -20 35 0 c31 1 38 6 62 45
35 58 79 60 101 5 4 -12 6 -11 6 3 1 27 61 24 61 -3 0 -25 -30 -27 -31 -2 -1
16 -2 16 -6 0 -3 -13 -15 -18 -39 -18 -22 0 -34 -5 -33 -12 4 -30 -2 -48 -15
-48 -8 0 -16 7 -20 15 -3 8 -15 15 -26 15 -11 0 -20 -7 -20 -15 0 -11 -12 -15
-50 -15 -42 0 -50 3 -50 19 0 10 11 26 25 35 24 16 35 56 15 56 -5 0 -10 -7
-10 -15 0 -8 -7 -15 -15 -15 -23 0 -18 30 8 39 30 11 61 -2 65 -27z m960 -377
c5 -5 12 -34 14 -62 5 -52 5 -53 -22 -53 -26 0 -27 1 -22 50 3 33 1 50 -7 50
-7 0 -11 -20 -11 -50 0 -46 -2 -50 -24 -50 -22 0 -23 3 -18 51 4 41 2 51 -9
47 -9 -3 -14 -20 -13 -51 0 -44 -1 -47 -26 -47 -24 0 -25 2 -25 58 0 39 4 59
14 63 23 9 139 5 149 -6z"/>
</g>
</svg>
